<svg width="24" height="24" viewBox="0 0 24 24" fill="none" xmlns="http://www.w3.org/2000/svg">
<path d="M22 2.25C22.4142 2.25 22.75 2.58579 22.75 3C22.75 3.41421 22.4142 3.75 22 3.75H8.96191C8.1238 3.75005 7.35998 4.21515 6.97266 4.94824L6.90039 5.09863L6.83398 5.25H8C8.9665 5.25 9.75 6.0335 9.75 7V11C9.75 11.9665 8.9665 12.75 8 12.75H3.58398C2.95387 14.7882 3.94066 17.0181 5.94141 17.8936L6.14453 17.9766C6.62352 18.1573 7.13235 18.25 7.64551 18.25H22C22.4142 18.25 22.75 18.5858 22.75 19C22.75 19.4142 22.4142 19.75 22 19.75H7.64551C6.95986 19.75 6.28061 19.6263 5.63965 19.3877C5.63408 19.3969 5.63003 19.407 5.62402 19.416L4.40137 21.25H22C22.4142 21.25 22.75 21.5858 22.75 22C22.75 22.4142 22.4142 22.75 22 22.75H2C1.58579 22.75 1.25 22.4142 1.25 22C1.25 21.5858 1.58579 21.25 2 21.25H2.59863L4.30859 18.6836C2.22543 17.2028 1.34072 14.472 2.25 12.0117C2.24994 12.0078 2.25 12.0039 2.25 12C2.25 11.7887 2.33788 11.5982 2.47852 11.4619L5.52637 4.49707L5.64746 4.24707C6.29309 3.02548 7.56518 2.25005 8.96191 2.25H22ZM8 14.25C8.41421 14.25 8.75 14.5858 8.75 15C8.75 15.4142 8.41421 15.75 8 15.75H6C5.58579 15.75 5.25 15.4142 5.25 15C5.25 14.5858 5.58579 14.25 6 14.25H8ZM18 14.25C18.4142 14.25 18.75 14.5858 18.75 15C18.75 15.4142 18.4142 15.75 18 15.75H12C11.5858 15.75 11.25 15.4142 11.25 15C11.25 14.5858 11.5858 14.25 12 14.25H18ZM20 5.25C20.9665 5.25 21.75 6.0335 21.75 7V11C21.75 11.9665 20.9665 12.75 20 12.75H13C12.0335 12.75 11.25 11.9665 11.25 11V7C11.25 6.0335 12.0335 5.25 13 5.25H20ZM4.20898 11.25H8C8.13807 11.25 8.25 11.1381 8.25 11V7C8.25 6.86193 8.13807 6.75 8 6.75H6.17773L4.20898 11.25ZM13 6.75C12.8619 6.75 12.75 6.86193 12.75 7V11C12.75 11.1381 12.8619 11.25 13 11.25H20C20.1381 11.25 20.25 11.1381 20.25 11V7C20.25 6.86193 20.1381 6.75 20 6.75H13Z" fill="#687176"></path>
</svg>