<svg width="85" height="71" viewBox="0 0 85 71" fill="none" xmlns="http://www.w3.org/2000/svg">
<path opacity="0.8" d="M77.4311 47.6554L71.1647 27.5952C70.8585 26.6158 69.5499 26.4344 68.99 27.2947L64.7842 33.7524C64.3015 34.4929 63.2145 34.4855 62.7416 33.7384L43.2668 2.93106C42.7947 2.18399 41.707 2.1766 41.2242 2.9171L21.8487 32.6679C21.366 33.4084 20.2791 33.4019 19.8062 32.654L16.0642 26.734C15.5922 25.9869 14.5044 25.9795 14.0217 26.7201L0.199989 47.9435C-0.327888 48.7546 0.259094 49.8268 1.22619 49.8194L76.2817 49.2308C77.0961 49.2242 77.6733 48.4328 77.4303 47.6554H77.4311Z" fill="#91D6FD"/>
<g opacity="0.8">
<path d="M41.5873 2.35815L33.7825 14.3425C33.5879 14.6414 33.6183 15.0338 33.8555 15.299L36.1123 17.8201C36.4104 18.1534 36.9251 18.1723 37.2469 17.862L39.7106 15.4894C40.0308 15.1816 40.5414 15.198 40.8411 15.5264L42.3607 17.1929L44.519 19.5598C44.8482 19.921 45.4229 19.8988 45.7233 19.5138L48.5154 15.9377C48.7962 15.5781 49.3224 15.5313 49.6623 15.8351C50.3462 16.4458 51.3453 15.5953 50.8527 14.8228L42.9132 2.36472C42.6053 1.88118 41.9001 1.87789 41.5873 2.35815Z" fill="white"/>
</g>
<g opacity="0.8">
<path d="M14.8468 25.455L10.6755 31.8601C10.6148 31.9537 10.6238 32.076 10.6985 32.1589L12.035 33.6514C12.1278 33.7557 12.2887 33.7615 12.3889 33.6646L13.8748 32.2336C13.975 32.1376 14.1342 32.1425 14.2278 32.2451L15.1095 33.2122L16.3328 34.5537C16.4354 34.6662 16.6152 34.6596 16.7088 34.5397L18.3466 32.4422C18.4344 32.3297 18.5986 32.3149 18.7045 32.4102L19.6692 33.2713C19.8826 33.4618 20.1946 33.1966 20.041 32.9553L15.2622 25.4574C15.1662 25.3064 14.9462 25.3056 14.8485 25.4558L14.8468 25.455Z" fill="white"/>
</g>
<path d="M54.8139 47.0061C57.3884 43.3044 62.6853 43.1336 64.8066 42.3521L61.375 63.3391L23.8136 63.2726C23.8136 63.2726 24.5147 60.8828 25.3619 59.7441C26.4218 58.3214 28.6614 58.149 30.2787 58.2598C31.8951 58.3706 33.1931 57.2558 34.2661 55.0466C35.3391 52.8374 38.8815 49.1677 42.0283 49.4517C45.175 49.7358 51.5966 51.6314 54.8147 47.0044L54.8139 47.0061Z" fill="#91D6FD"/>
<path d="M6.97893 17.7618C6.57009 17.2364 6.36484 16.5156 6.3985 15.8046C6.41739 15.3794 6.52165 14.959 6.7195 14.583C6.76876 14.4911 6.82294 14.4016 6.88205 14.3162C7.43948 13.5133 8.42299 13.0248 9.35232 13.0289C9.59204 13.0298 9.8293 13.0634 10.0542 13.134C10.0469 13.0068 10.0501 12.8787 10.0625 12.7515C10.1815 11.5923 11.1174 10.4569 12.2741 10.1507C12.9999 9.95773 13.4596 10.1556 14.0852 10.4651C14.2288 10.5357 15.7772 11.4937 15.6844 11.5923C16.5497 10.6744 18.1662 10.4454 19.2679 11.0176C19.6299 11.2048 19.9378 11.4798 20.1718 11.809C20.5125 12.2852 20.6996 12.8762 20.6808 13.4879C20.6972 13.4797 20.7144 13.4698 20.7308 13.4632C21.4451 13.0963 22.2431 12.8475 22.9926 12.9641C23.6453 13.0659 24.0927 13.4402 24.3669 13.9369C24.6033 14.3605 24.715 14.8753 24.724 15.3876C24.7388 15.3843 24.7519 15.381 24.7667 15.3794C25.2584 15.2792 25.7748 15.3999 26.0457 15.8136C26.0466 15.8161 26.0482 15.8169 26.049 15.8186C26.4694 16.4655 26.242 17.2011 25.7601 17.761H6.97811L6.97893 17.7618Z" fill="#F5FBFF"/>
<g opacity="0.6">
<path d="M10.4654 56.9791C10.88 57.1097 11.7872 57.3945 13.5703 57.9561C15.7122 58.6309 16.5414 59.8311 16.8 60.3188C16.8509 60.4157 16.777 60.5314 16.6678 60.5281C15.9741 60.5068 13.8831 60.405 12.6574 59.9461C11.4851 59.5077 10.6099 57.8543 10.2922 57.1762C10.2389 57.0629 10.3456 56.9414 10.4654 56.9791Z" fill="#0A9AF2"/>
<path d="M10.1821 53.5352C10.5967 53.6658 11.5039 53.9506 13.287 54.5122C15.4289 55.187 16.2581 56.3872 16.5167 56.8749C16.5676 56.9718 16.4945 57.0875 16.3845 57.0842C15.6908 57.0629 13.5998 56.9611 12.3741 56.5022C11.2018 56.0638 10.3266 54.4104 10.0089 53.7323C9.95556 53.619 10.0623 53.4975 10.1821 53.5352Z" fill="#0A9AF2"/>
<path d="M10.453 49.2588C10.852 49.4312 11.7247 49.8089 13.4397 50.5519C15.5003 51.4442 16.2006 52.7241 16.4075 53.2356C16.4485 53.3374 16.3631 53.4449 16.2548 53.4301C15.5668 53.3366 13.4972 53.0197 12.3265 52.4368C11.2059 51.8793 10.5064 50.1447 10.2609 49.4378C10.2199 49.3196 10.3381 49.2096 10.453 49.2597V49.2588Z" fill="#0A9AF2"/>
<path d="M15.703 50.3286C15.0897 50.0035 13.2582 48.9896 12.3609 48.0381C11.503 47.1276 11.448 45.2583 11.4627 44.5104C11.4652 44.3856 11.6146 44.3232 11.7049 44.4094C12.0194 44.7091 12.7073 45.365 14.0594 46.6548C15.6833 48.2047 15.8976 49.6472 15.914 50.198C15.9173 50.3072 15.7999 50.3786 15.703 50.3277V50.3286Z" fill="#0A9AF2"/>
<path d="M15.6822 48.2704L15.8784 47.3082C15.8481 47.2943 15.8218 47.2696 15.807 47.2343C15.5377 46.5948 14.7611 44.6532 14.6683 43.3495C14.5797 42.1025 15.7216 40.6198 16.2068 40.0509C16.2881 39.9557 16.4433 40.0017 16.4589 40.1256C16.513 40.5566 16.6304 41.4991 16.8603 43.352C17.137 45.5784 16.3891 46.8304 16.0525 47.268C16.0229 47.3066 15.9794 47.323 15.9367 47.3222L16.9219 61.9517L15.6814 48.2704H15.6822Z" fill="#0A9AF2"/>
<path d="M16.7321 60.3483C16.9143 59.8279 17.5538 58.5176 19.5701 57.53C21.249 56.7082 22.102 56.2912 22.4927 56.0999C22.6052 56.0449 22.7284 56.1491 22.6931 56.269C22.4813 56.9865 21.8639 58.7524 20.7712 59.3607C19.6284 59.997 17.576 60.4099 16.8938 60.5355C16.7863 60.5552 16.6959 60.4518 16.7321 60.3483Z" fill="#0A9AF2"/>
<path d="M20.529 55.9193C19.3862 56.5555 17.3338 56.9684 16.6516 57.0941C16.5441 57.1138 16.4529 57.0103 16.4899 56.9069C16.6721 56.3864 17.3117 55.0761 19.3279 54.0885C21.0068 53.2667 21.8598 52.8497 22.2506 52.6584C22.363 52.6034 22.4862 52.7077 22.4509 52.8275C22.2391 53.545 21.6217 55.3109 20.529 55.9193Z" fill="#0A9AF2"/>
<path d="M20.2267 51.9064C19.1562 52.6576 17.1579 53.2807 16.4921 53.4753C16.3871 53.5057 16.2861 53.4121 16.3115 53.3062C16.4388 52.7693 16.9387 51.3999 18.8425 50.2095C20.427 49.2186 21.2324 48.7154 21.601 48.4847C21.7069 48.4182 21.8407 48.5093 21.8177 48.6325C21.6814 49.368 21.2504 51.1881 20.2267 51.9064Z" fill="#0A9AF2"/>
<path d="M16.3408 50.1849C16.2382 50.2612 16.0904 50.1988 16.0748 50.0724C15.9969 49.4337 15.9911 47.7343 17.5912 45.6638C18.9236 43.9406 19.6009 43.0655 19.9112 42.6649C20.0007 42.5499 20.1838 42.5951 20.2084 42.7388C20.357 43.5983 20.6213 45.7632 19.7913 46.9618C18.9236 48.2154 16.9902 49.7022 16.3408 50.1841V50.1849Z" fill="#0A9AF2"/>
</g>
<g opacity="0.5">
<path d="M77.4837 28.7536L73.0004 35.6365L74.6333 37.4607L76.4854 35.6768L77.537 36.8302L78.9565 38.3876L80.9358 35.8533L83.4258 38.0764L77.4837 28.7536Z" fill="white"/>
</g>
<path d="M55.2628 4.69368L78.4311 0.0938325C78.7086 0.0388281 78.991 0.0109154 79.2742 0.0117363C79.2742 0.0117363 81.1115 0.293326 82.641 0.6644C84.1713 1.03547 85.0078 2.09944 85.0078 2.89003V68.9996C85.0078 69.8501 84.2246 70.9567 83.3618 71.0011L80.027 70.951C79.8202 70.9395 79.0132 70.8828 79.0132 70.8828L55.2619 65.9423C54.5797 65.8405 54.0748 65.2543 54.0748 64.5647V6.07125C54.0748 5.38164 54.5797 4.79548 55.2619 4.69368H55.2628Z" fill="#024590"/>
<path d="M55.1586 67.2706L78.6668 70.8508C80.3875 71.1127 81.9375 69.7811 81.9375 68.0407V2.84322C81.9375 1.17585 80.509 -0.133581 78.8474 0.0109078L55.3392 4.55411C53.8705 4.68218 52.7433 5.91198 52.7433 7.38642V64.4596C52.7433 65.8643 53.7695 67.0588 55.1577 67.2698L55.1586 67.2706Z" fill="#0071CE"/>
<path d="M56.217 56.0431L77.2048 59.24C78.7409 59.4739 80.125 58.2852 80.125 56.7311V6.70173C80.125 5.21251 78.8492 4.04346 77.3666 4.17317L56.3787 6.00474C55.0676 6.11885 54.0611 7.2173 54.0611 8.5333V53.5343C54.0611 54.7887 54.9773 55.8543 56.217 56.0431Z" fill="#F0F1F2"/>
<mask id="mask0_4258_27301" style="mask-type:luminance" maskUnits="userSpaceOnUse" x="54" y="4" width="27" height="56">
<path d="M56.217 56.0431L77.2048 59.24C78.7409 59.4739 80.125 58.2852 80.125 56.7311V6.70173C80.125 5.21251 78.8492 4.04346 77.3666 4.17317L56.3787 6.00474C55.0676 6.11885 54.0611 7.2173 54.0611 8.5333V53.5343C54.0611 54.7887 54.9773 55.8543 56.217 56.0431Z" fill="white"/>
</mask>
<g mask="url(#mask0_4258_27301)">
<path d="M62.1351 35.6127H63.5192C64.2614 35.6127 64.8623 36.0602 64.8623 36.6118V37.0757H60.7912V36.6118C60.7912 36.0602 61.3929 35.6127 62.1343 35.6127H62.1351Z" fill="#2D1908"/>
<path d="M61.2189 19.6311V31.6327H82.0508V20.37C82.0508 19.7756 81.5993 19.2937 81.0426 19.2937L62.2262 18.5548C61.6696 18.5548 61.2181 19.0367 61.2181 19.6311H61.2189Z" fill="#707577"/>
<path d="M62.7451 20.1721L62.2386 29.9128C62.2312 30.0565 62.3297 30.1747 62.4594 30.1772L81.1314 30.5195C81.1757 30.5195 81.2159 30.5056 81.248 30.4785C81.3005 30.435 81.3309 30.3603 81.3243 30.2749L80.5756 20.9365C80.5657 20.8166 80.4689 20.7156 80.3597 20.7115L62.9742 19.9571C62.8987 19.9538 62.8297 19.9907 62.7878 20.0498C62.7632 20.0843 62.7476 20.127 62.7451 20.173V20.1721Z" fill="#A2A6A8"/>
<path opacity="0.1" d="M73.2243 20.4011L81.2246 29.0253L80.98 25.9664L75.8555 20.5152L73.2243 20.4011Z" fill="white"/>
<path opacity="0.1" d="M62.7458 20.1721L62.5266 24.3927L67.5763 30.2716L73.0439 30.3718L63.8722 19.9956L62.9757 19.9571C62.9001 19.9538 62.8312 19.9907 62.7893 20.0498C62.7647 20.0843 62.7491 20.127 62.7466 20.173L62.7458 20.1721Z" fill="white"/>
<path d="M61.216 31.6335C61.216 31.9283 61.2841 32.2066 61.404 32.4504C61.4811 32.6088 61.5813 32.7525 61.6987 32.8781C61.9967 33.1967 62.4088 33.3937 62.8636 33.3937H80.4002C81.034 33.3937 81.584 33.0111 81.8599 32.4512C81.9797 32.2074 82.0479 31.9291 82.0479 31.6344H61.216V31.6335Z" fill="#C1C4C6"/>
<path d="M70.0755 32.4249V32.4767C70.0755 32.5891 70.1617 32.6811 70.2668 32.6811H73.0031C73.1081 32.6811 73.1943 32.5891 73.1943 32.4767V32.4249C73.1943 32.3125 73.1081 32.2205 73.0031 32.2205H70.2668C70.1617 32.2205 70.0755 32.3125 70.0755 32.4249Z" fill="#707577"/>
<path d="M68.9988 36.1374H74.3277L74.7119 33.3929H68.5522L68.9988 36.1374Z" fill="#707577"/>
<path d="M68.7312 34.4922H74.5576L74.7119 33.3929H68.5522L68.7312 34.4922Z" fill="#4F5254"/>
<path d="M76.0084 36.1373H67.2561C66.748 36.1373 66.3359 36.5495 66.3359 37.0576V37.0798H76.9287V37.0576C76.9287 36.5495 76.5166 36.1373 76.0084 36.1373Z" fill="#4F5254"/>
<path d="M43.1652 37.0757H101.697V39.5221H43.1652V37.0757Z" fill="#C1C4C6"/>
<path d="M74.7039 8.59326H76.3877V15.0493H74.7039V8.59326Z" fill="#707577"/>
<path d="M75.3208 9.28619H75.7715V14.3556H75.3208V9.28619Z" fill="#F0F1F2"/>
<path d="M73.0203 8.47504H74.7041V15.0485H73.0203V8.47504Z" fill="#A2A6A8"/>
<path d="M73.0208 8.4751H73.8623V15.0485H73.0208V8.4751Z" fill="#707577"/>
<path d="M59.5885 8.32313L61.2354 8.67407L59.8898 14.9883L58.2429 14.6374L59.5885 8.32313Z" fill="#A2A6A8"/>
<path d="M71.3367 8.28296H73.0205V15.0485H71.3367V8.28296Z" fill="#C1C4C6"/>
<path d="M69.6531 8.966H71.3369V15.0485H69.6531V8.966Z" fill="#707577"/>
<path d="M67.9705 8.59326H69.6543V15.0493H67.9705V8.59326Z" fill="#A2A6A8"/>
<path d="M67.9703 8.59326H68.5762V15.0493H67.9703V8.59326Z" fill="#C1C4C6"/>
<path d="M66.2859 8.83789H67.9697V15.0485H66.2859V8.83789Z" fill="#A2A6A8"/>
<path d="M64.6023 8.59326H66.2861V15.0493H64.6023V8.59326Z" fill="#707577"/>
<path d="M62.9197 7.89868H64.6035V15.0484H62.9197V7.89868Z" fill="#A2A6A8"/>
<path d="M61.2352 8.59326H62.9189V15.0493H61.2352V8.59326Z" fill="#C1C4C6"/>
<path d="M61.7033 9.09406H62.4512V14.5477H61.7033V9.09406Z" fill="#F0F1F2"/>
<path d="M72.1787 10.1835C72.0536 10.1835 71.9521 10.082 71.9521 9.95687C71.9521 9.83173 72.0536 9.73029 72.1787 9.73029C72.3038 9.73029 72.4053 9.83173 72.4053 9.95687C72.4053 10.082 72.3038 10.1835 72.1787 10.1835Z" fill="#FEF5FC"/>
<path d="M72.1787 11.1432C72.0536 11.1432 71.9521 11.0417 71.9521 10.9166C71.9521 10.7914 72.0536 10.69 72.1787 10.69C72.3038 10.69 72.4053 10.7914 72.4053 10.9166C72.4053 11.0417 72.3038 11.1432 72.1787 11.1432Z" fill="#FEF5FC"/>
<path d="M71.9521 11.8771C71.9521 12.0019 72.0531 12.1037 72.1787 12.1037C72.3043 12.1037 72.4053 12.0027 72.4053 11.8771C72.4053 11.7515 72.3043 11.6505 72.1787 11.6505C72.0531 11.6505 71.9521 11.7515 71.9521 11.8771Z" fill="#FEF5FC"/>
<path d="M46.0834 15.0493H78.2733C78.4465 15.0493 78.5869 15.1897 78.5869 15.3629V15.8974C78.5869 16.0706 78.4465 16.211 78.2733 16.211H46.0834C45.9102 16.211 45.7698 16.0706 45.7698 15.8974V15.3629C45.7698 15.1897 45.9102 15.0493 46.0834 15.0493Z" fill="#C1C4C6"/>
<path d="M63.931 3.36621L58.415 5.0853L74.4992 61.7743H80.5029L63.931 3.36621Z" fill="white"/>
<path d="M54.9853 5.61804H53.1382L69.1001 61.7742H70.9473L54.9853 5.61804Z" fill="white"/>
</g>
<path d="M66.1755 65.476C64.6965 65.476 63.4976 64.277 63.4976 62.798C63.4976 61.319 64.6965 60.1201 66.1755 60.1201C67.6545 60.1201 68.8535 61.319 68.8535 62.798C68.8535 64.277 67.6545 65.476 66.1755 65.476Z" fill="#D1F0FF"/>
<path fill-rule="evenodd" clip-rule="evenodd" d="M55.6309 16.7421C55.8369 16.4843 57.0134 15.069 57.29 14.5394C57.5659 14.0099 57.3976 13.5485 56.9469 13.2456C56.4945 12.9427 55.8673 12.9501 55.5939 13.1069C55.3189 13.2637 55.3017 13.9171 55.3017 13.9171C55.3017 13.9171 55.1473 13.2513 54.5628 13.0839C53.9775 12.9172 53.5621 13.3293 53.4348 13.7644C53.3076 14.1996 53.3814 14.4598 53.9717 15.2019C54.5636 15.9433 55.6325 16.7412 55.6325 16.7412H55.6317L55.6309 16.7421Z" fill="#FF4581"/>
<path d="M46.6956 47.2995C46.3048 46.7076 45.905 45.7011 46.061 44.812C46.1357 44.3851 46.336 44.092 46.5297 43.808C46.6217 43.6725 46.7177 43.533 46.7982 43.3786C47.2349 42.5396 47.3515 41.3041 46.5749 40.5726L46.9476 40.1769C47.9303 41.1021 47.8088 42.616 47.2809 43.6307C47.1857 43.8137 47.0806 43.9664 46.9796 44.115C46.8039 44.372 46.6521 44.5945 46.5979 44.9064C46.4772 45.5919 46.7892 46.4515 47.1512 47.0007L46.6972 47.3004L46.6956 47.2995Z" fill="#FFA800"/>
<path d="M52.2272 36.4235C52.6114 37.9833 52.9078 39.6786 52.5474 41.346C52.3191 42.4034 50.0787 43.2629 48.6232 43.6816C48.0994 43.8327 47.6774 43.9263 47.487 43.9509C46.0486 44.1397 43.672 42.5651 43.461 41.933C43.1383 40.9642 41.4504 30.9173 44.5077 29.2803C45.8541 28.5595 47.3556 27.8773 48.8736 28.3781L49.5074 29.8985L52.2256 36.4227L52.2272 36.4235Z" fill="#FFA800"/>
<path d="M52.2275 36.4235C52.6117 37.9833 52.9081 39.6786 52.5477 41.346C52.3194 42.4034 50.079 43.2629 48.6235 43.6816C48.1875 43.6463 47.6441 43.8672 47.1006 42.4715C46.5571 41.0759 45.9775 31.1956 45.7197 30.8738L49.5085 29.8985L52.2267 36.4227L52.2275 36.4235Z" fill="#FD5D1C"/>
<path d="M45.6722 32.5896C45.6722 32.5896 45.6722 32.5855 45.6722 32.5839C45.6722 32.5855 45.6705 32.5871 45.6697 32.588C45.6574 32.6093 45.6582 32.6101 45.673 32.5896H45.6722Z" fill="#0A5C2C"/>
<path d="M44.2966 28.9929C43.6111 29.0381 42.768 29.5315 42.4946 30.1308C42.3206 30.5125 42.6243 31.4608 43.0061 31.7522C43.0061 31.7522 43.9847 30.7112 44.845 31.3376C45.1972 31.5937 45.5117 32.1471 45.6709 32.5846C45.799 32.3384 45.9714 32.074 46.0658 31.8129C46.4755 30.6743 45.8959 28.887 44.2975 28.9938L44.2966 28.9929Z" fill="#2D1908"/>
<path d="M51.1473 29.4412C51.0808 30.0824 49.6581 30.7605 49.0711 31.093C48.1007 31.643 46.7748 32.2965 45.6723 32.5838C45.9128 31.9665 45.9104 30.8656 45.5336 30.125C45.3965 29.8558 45.2101 29.6341 44.9679 29.5011C43.8366 28.8813 42.1766 29.9009 42.5838 31.1045L42.6109 31.1882C41.6266 30.1842 43.2012 29.0767 44.0607 28.5176C45.1666 27.7984 46.8003 27.1318 48.1261 27.053C48.8888 27.0079 49.5448 27.099 50.0751 27.576C50.1859 27.6753 50.3239 27.8206 50.4634 27.9905C50.8205 28.4257 51.19 29.0241 51.1465 29.4412H51.1473Z" fill="#500351"/>
<g style="mix-blend-mode:multiply" opacity="0.4">
<path d="M51.146 29.4412C51.0795 30.0824 49.6567 30.7605 49.0698 31.093C48.0994 31.6431 46.7735 32.2965 45.671 32.5839C45.9115 31.9665 45.909 30.8656 45.5322 30.1251C46.8187 29.9502 48.0304 29.4363 49.1954 28.7828C49.6354 28.5365 50.0565 28.2722 50.4621 27.9906C50.8192 28.4257 51.1886 29.0242 51.1451 29.4412H51.146Z" fill="#029D24"/>
</g>
<path d="M43.0537 38.5153C43.0135 39.3026 42.7623 40.3362 43.2417 41.0824C43.6924 41.7852 44.8598 41.6998 45.689 41.3903C45.5577 40.6309 45.3376 39.6375 45.4756 38.8839L43.0537 38.5145V38.5153Z" fill="#2D1908"/>
<path d="M42.8317 37.6647L42.8186 37.6229C42.1987 38.1992 41.4903 39.3961 42.6363 39.7122C43.674 39.9979 44.7224 39.8666 45.6788 39.5152C45.9612 39.0431 45.5023 37.5005 45.5023 37.5005C45.5023 37.5005 42.991 37.5802 42.8317 37.6647Z" fill="#FD5D1C"/>
<path d="M55.6556 39.0177L56.4068 41.6604C56.4068 41.6604 56.4938 42.9016 54.2822 43.1693C52.0705 43.4369 49.2037 43.308 49.2037 43.308L48.1865 37.3002L53.8126 35.779L55.6556 39.0169V39.0177Z" fill="#FEF5FC"/>
<path d="M50.5641 19.3458C50.5641 19.3458 51.0526 21.6815 47.772 23.5951C44.4915 25.5088 42.3545 24.8266 42.3545 24.8266C42.3545 24.8266 42.5047 21.7644 45.1646 20.5452C47.8237 19.3261 50.5641 19.3466 50.5641 19.3466V19.3458Z" fill="#D33E09"/>
<path d="M66.5155 60.7486L69.1582 58.619C68.6935 57.5862 67.5926 55.0831 66.449 52.6752L62.8877 54.9608C64.3211 57.4631 66.1494 60.1255 66.5155 60.7494V60.7486Z" fill="#FEB9AB"/>
<path d="M65.4142 60.8191C65.1925 59.8209 65.0883 58.0344 66.7195 57.0838C67.5019 56.7127 68.4829 56.6027 69.7021 57.101C71.9474 58.0188 74.3668 57.9384 76.3806 56.8761C76.8658 56.6199 77.4913 56.8539 77.7779 57.3974L77.7795 57.4007C78.066 57.9441 77.9051 58.5927 77.4199 58.848C66.9174 64.387 69.5469 62.9996 68.0454 63.7918C66.1695 64.7811 65.6416 61.8429 65.4142 60.8191Z" fill="#FEB9AB"/>
<path d="M65.2737 60.9218L65.24 60.7641C65.2022 60.5893 65.1686 60.3898 65.1472 60.173C65.1415 60.1106 65.0651 59.7248 65.3985 59.742C66.0396 59.7749 66.6217 61.2337 68.2529 60.0753C68.8325 59.664 68.5041 58.7905 68.9943 58.5319C69.0624 58.4958 69.17 58.4622 69.2504 58.4753C68.4836 57.6034 68.6371 56.8145 68.89 56.5091C69.0008 56.3745 69.1141 56.4032 69.2496 56.5075C69.6453 56.8104 69.7331 56.9499 70.3521 57.165C72.3093 57.7545 74.3781 57.5804 76.1202 56.6618C76.6776 56.3679 77.3878 56.6158 77.7055 57.2184C78.0216 57.8177 78.4821 59.1353 77.8138 59.4884L67.5174 64.9182C67.1381 65.1185 66.8417 64.708 66.5388 64.1334C66.3688 63.8107 65.5979 62.5267 65.2745 60.9218H65.2737Z" fill="#FD5D1C"/>
<path d="M66.5381 64.1334L78.0439 58.0657C78.2072 58.6403 78.2417 59.2618 77.814 59.4876C75.6655 60.6205 69.5042 63.8699 67.5175 64.9174C67.1382 65.1177 66.8418 64.7072 66.5389 64.1326L66.5381 64.1334Z" fill="#D33E09"/>
<path d="M70.4318 59.1058C70.4893 59.0754 70.5344 59.0237 70.5541 58.9572L71.0295 57.3473C71.0673 57.2192 70.9934 57.0879 70.8645 57.0534C70.7356 57.0189 70.6001 57.0944 70.5624 57.2225L70.087 58.8324C70.0493 58.9605 70.1231 59.0918 70.252 59.1263C70.3144 59.1427 70.3785 59.1337 70.4318 59.1058Z" fill="#F0F1F2"/>
<path d="M71.7246 59.1747C71.7911 59.1394 71.8412 59.0754 71.8543 58.9966L72.099 57.5008C72.1203 57.3694 72.03 57.2479 71.897 57.2299C71.764 57.2118 71.6392 57.3029 71.6179 57.4343L71.3732 58.9309C71.3519 59.0623 71.4422 59.1838 71.5752 59.2018C71.6286 59.2092 71.6803 59.1985 71.7254 59.1756L71.7246 59.1747Z" fill="#F0F1F2"/>
<path d="M73.0674 59.096C73.1454 59.0549 73.1988 58.9745 73.1996 58.8817L73.2135 57.4984C73.2152 57.3662 73.1068 57.2595 72.9722 57.2611C72.8375 57.2619 72.7275 57.3711 72.7259 57.5041L72.7119 58.8875C72.7103 59.0196 72.8187 59.1263 72.9533 59.1247C72.9943 59.1247 73.0329 59.114 73.0666 59.096H73.0674Z" fill="#F0F1F2"/>
<path d="M74.3877 58.8587C74.4797 58.8103 74.5347 58.7085 74.5166 58.6026L74.2999 57.3325C74.2777 57.202 74.1521 57.1166 74.0191 57.1413C73.8861 57.1659 73.7966 57.2915 73.8188 57.422L74.0355 58.6921C74.0577 58.8226 74.1833 58.908 74.3163 58.8833C74.3418 58.8784 74.3656 58.8702 74.3869 58.8587H74.3877Z" fill="#F0F1F2"/>
<path d="M37.0588 48.9875L36.0654 52.0677C36.9759 52.649 39.3468 53.6834 41.5183 55.006L43.1963 51.4848C40.7449 50.2386 37.6778 49.2937 37.0596 48.9875H37.0588Z" fill="#FEB9AB"/>
<path d="M37.1295 48.1435C37.8191 48.815 38.8223 50.1663 38.0293 51.7549C37.6057 52.4503 36.8906 53.043 35.6739 53.2794C33.4335 53.7154 31.5724 55.0264 30.5364 56.9007C30.2868 57.3522 29.6743 57.491 29.1686 57.2118L29.1662 57.2102C28.6605 56.9302 28.4528 56.3375 28.7023 55.886C34.1075 46.1116 32.7546 48.5589 33.5271 47.1616C34.4926 45.4163 36.4226 47.4555 37.1295 48.1435Z" fill="#FEB9AB"/>
<path d="M37.1883 47.99L37.2958 48.0968C37.4157 48.215 37.5454 48.3545 37.6734 48.5138C37.7104 48.5598 37.969 48.8241 37.6989 48.9826C37.1776 49.2871 35.9675 48.4399 35.2812 50.1927C35.0373 50.815 35.7466 51.333 35.4938 51.7894C35.4585 51.8526 35.392 51.9347 35.3214 51.9659C36.3739 52.2566 36.6604 52.956 36.6193 53.3263C36.6013 53.4896 36.4978 53.5249 36.3369 53.5126C35.8698 53.4781 35.7286 53.4141 35.1301 53.5635C33.2862 54.1095 31.7486 55.313 30.8521 56.9344C30.5656 57.4532 29.8784 57.624 29.3185 57.3145C28.7611 57.0066 27.7193 56.207 28.0633 55.5847L33.3626 46.0025C33.558 45.6495 34.0021 45.8194 34.5374 46.115C34.8378 46.2808 36.1062 46.894 37.1883 47.9892V47.99Z" fill="#FD5D1C"/>
<path d="M34.5373 46.1157L28.6157 56.8227C28.1905 56.4549 27.8432 55.9837 28.0632 55.5855C29.1691 53.5865 32.3404 47.8521 33.3625 46.0033C33.5579 45.6503 34.0021 45.8202 34.5373 46.1157Z" fill="#D33E09"/>
<path d="M34.0657 52.0792C34.0362 52.1326 34.0271 52.1974 34.046 52.259L34.5025 53.7704C34.5386 53.8902 34.665 53.9559 34.7841 53.9165C34.9031 53.8771 34.9712 53.7474 34.9343 53.6275L34.4778 52.1161C34.4417 51.9963 34.3153 51.9306 34.1963 51.97C34.1388 51.9889 34.0928 52.0291 34.0657 52.0792Z" fill="#F0F1F2"/>
<path d="M33.013 52.6917C32.9785 52.7532 32.9728 52.8296 33.0031 52.8985L33.5819 54.2014C33.6328 54.3155 33.7666 54.3648 33.8808 54.3106C33.9949 54.2564 34.0458 54.1201 33.9949 54.0052L33.4161 52.7023C33.3652 52.5882 33.2314 52.539 33.1173 52.5931C33.0713 52.6145 33.036 52.6498 33.013 52.6917Z" fill="#F0F1F2"/>
<path d="M31.9994 53.4461C31.9592 53.5183 31.9584 53.6094 32.006 53.6825L32.7079 54.7777C32.7752 54.8828 32.9148 54.9107 33.0199 54.8401C33.125 54.7703 33.1553 54.6274 33.088 54.5224L32.3861 53.4272C32.3188 53.3221 32.1792 53.2942 32.0741 53.3648C32.0421 53.3861 32.0175 53.4141 31.9994 53.4461Z" fill="#F0F1F2"/>
<path d="M31.0832 54.313C31.0356 54.3984 31.0455 54.5076 31.1136 54.5806L31.9387 55.4673C32.0232 55.5584 32.1661 55.5609 32.258 55.473C32.35 55.3852 32.3557 55.2399 32.2704 55.1487L31.4453 54.2621C31.3607 54.171 31.2179 54.1685 31.1259 54.2564C31.1087 54.2728 31.0939 54.2925 31.0824 54.3122L31.0832 54.313Z" fill="#F0F1F2"/>
<path d="M56.5499 43.432C56.5499 43.432 51.7588 57.1158 50.0799 58.0131C47.3322 59.4827 38.0947 53.167 38.0947 53.167L40.0765 49.3036C40.0765 49.3036 42.578 49.9874 43.8973 50.278C45.2166 50.5678 46.4784 51.0998 46.4784 51.0998L49.0053 42.1957L56.5499 43.4329V43.432Z" fill="#0071CE"/>
<path d="M40.1583 49.0786L37.9524 53.4256C37.9146 53.4945 37.9269 53.5791 37.9828 53.6349L39.0352 54.68C39.119 54.7629 39.2594 54.7416 39.3144 54.6365L41.8027 49.5876C41.8552 49.4874 41.8002 49.3643 41.691 49.3363L40.3553 48.994C40.2782 48.9743 40.1969 49.0096 40.1583 49.0794V49.0786Z" fill="#024590"/>
<path d="M48.8781 42.689C48.8781 42.689 49.5727 45.2693 50.3238 45.9844C51.075 46.7002 52.2137 47.2298 53.2456 47.334L54.5378 47.2922C54.3367 47.3948 54.065 47.646 53.8638 47.7494C52.5651 48.5868 51.24 48.3348 49.9667 47.5384C48.6934 46.7421 48.3896 44.5896 48.3896 44.5896L48.8773 42.689H48.8781Z" fill="#05285D"/>
<path d="M68.411 56.0609C68.411 56.0609 63.3334 42.5142 62.0962 40.8419C61.2506 39.6991 57.5448 40.3969 57.5448 40.3969L49.0577 41.6054C49.0577 41.6054 48.6923 43.2415 49.3606 45.1035C49.8671 46.5155 51.3982 47.3611 52.715 47.4629C53.7675 47.5442 54.6648 47.2446 54.6648 47.2446L58.1465 47.6682C58.1465 47.6682 58.8279 49.4324 60.0626 52.3017C61.2974 55.1709 64.1404 57.633 64.1404 57.633L68.4118 56.0609H68.411Z" fill="#0071CE"/>
<path d="M64.6294 58.5073L68.4698 56.4443C68.5609 56.3975 68.6094 56.2965 68.5897 56.1963L68.322 54.8524C68.2917 54.7014 68.1242 54.6226 67.9887 54.6956L63.572 57.1544C63.4423 57.225 63.4119 57.3974 63.5104 57.5082L64.3552 58.4564C64.4249 58.5344 64.5382 58.5558 64.631 58.5073H64.6294Z" fill="#024590"/>
<path d="M41.9953 32.0798C42.2342 31.7415 41.3623 30.7564 41.3623 29.6924C41.3623 28.6284 41.8401 28.3862 42.0158 28.0554C42.2678 27.5809 42.1972 27.0062 42.1045 26.4767C41.877 25.173 42.9665 24.6747 43.0042 23.3513C43.042 22.0279 43.496 20.6429 44.5394 19.8277L48.8601 18.7974C49.6048 19.1389 50.1277 19.8442 50.452 20.5962C50.7771 21.3482 50.9331 22.1593 51.1482 22.9498C51.3633 23.7404 51.6514 24.5343 52.1883 25.1525C52.5684 25.5892 53.0569 25.9201 53.446 26.3486C53.8261 26.7665 54.1102 27.287 54.1734 27.8477C54.2366 28.4084 54.0576 29.0094 53.6414 29.3903C53.1989 29.7958 52.5578 29.9083 51.9585 29.8812C51.3263 29.8525 50.1909 30.5774 49.6655 30.2244C49.365 30.0224 48.7977 29.7055 48.3454 29.355L47.6418 32.904C47.4407 33.6511 45.5032 33.9786 44.8818 32.8129C44.2603 31.6471 42.1381 35.4465 41.8237 34.7388C41.6398 34.3243 42.0495 33.8161 41.9025 33.3867C41.7555 32.9574 41.7326 32.45 41.9944 32.0798H41.9953Z" fill="#732B06"/>
<path d="M61.1771 32.8129C61.1771 32.8129 61.5712 32.2546 61.1074 30.8894C60.6435 29.5241 59.3053 29.5241 59.3053 29.5241C59.3053 29.5241 52.7795 28.0119 51.865 28.2155C50.9504 28.4183 50.3643 28.8542 50.3643 28.8542L53.9978 32.3885L61.1771 32.8129Z" fill="#8BE200"/>
<path d="M44.7507 33.4072C44.7565 33.4187 44.8854 33.3522 45.1095 33.2923C45.2211 33.2619 45.3566 33.2389 45.5085 33.2258C45.6604 33.216 45.8287 33.2184 46.0027 33.243C46.1767 33.2693 46.3385 33.3145 46.4813 33.3662C46.6233 33.4212 46.7473 33.4819 46.845 33.5427C47.0429 33.6626 47.1479 33.7627 47.1561 33.7537C47.1594 33.7504 47.1348 33.7233 47.088 33.6773C47.042 33.6297 46.9673 33.5698 46.8696 33.5033C46.7728 33.436 46.6471 33.3695 46.5027 33.3095C46.3565 33.2529 46.1899 33.2045 46.0109 33.1774C45.8311 33.1527 45.6579 33.1519 45.5019 33.1651C45.3459 33.1815 45.2072 33.2102 45.0947 33.248C44.9822 33.2841 44.8936 33.321 44.8361 33.3539C44.7778 33.3851 44.7474 33.404 44.7491 33.4081L44.7507 33.4072Z" fill="#242628"/>
<path d="M47.6412 32.904C47.6412 32.904 47.6708 32.8473 47.7093 32.7398C47.7471 32.6323 47.798 32.4738 47.844 32.2743C47.8891 32.0748 47.9294 31.8318 47.9326 31.5584C47.9367 31.2859 47.8982 30.9838 47.7914 30.6858C47.6839 30.3886 47.5156 30.1283 47.3128 29.942C47.1109 29.7548 46.8843 29.6407 46.6856 29.5824C46.4861 29.5249 46.3162 29.5184 46.2012 29.529C46.1438 29.5348 46.0994 29.5413 46.0707 29.5496C46.0411 29.5561 46.0264 29.561 46.0264 29.5635C46.0255 29.5807 46.2841 29.5028 46.6716 29.6275C46.8621 29.6899 47.078 29.8049 47.2709 29.9871C47.4639 30.1686 47.6248 30.4206 47.729 30.7087C47.9392 31.2925 47.8752 31.8712 47.798 32.2645C47.7578 32.4631 47.7151 32.6224 47.6847 32.7324C47.6543 32.8424 47.6371 32.9032 47.642 32.9048L47.6412 32.904Z" fill="#242628"/>
<path d="M51.5732 28.2911C51.5732 28.2911 53.3753 30.139 54.2455 32.565C55.1149 34.9909 56.577 39.4208 56.4079 40.5447C56.4079 40.5447 57.1418 40.3838 57.0581 39.1647C56.9743 37.9464 55.8291 33.4877 55.3521 32.1849C54.876 30.882 53.4984 29.0061 52.8367 28.2278C52.8367 28.2278 52.189 27.9553 51.5732 28.2911Z" fill="#FFA800"/>
<path d="M51.5715 28.291C51.7398 28.3509 52.7455 29.4469 53.1207 29.8837C53.4959 30.3204 54.518 30.5142 54.9785 31.8909C55.4383 33.2677 55.0426 34.972 55.0426 34.972L57.544 40.3977C57.544 40.3977 55.027 40.8082 53.5985 41.1038C52.1708 41.3993 49.0758 42.318 49.0758 42.318C48.7335 42.4074 48.2138 42.0142 48.2688 41.6645L48.4256 40.7105C48.5192 40.117 47.1704 35.4129 46.9257 34.8644L45.6294 34.1182L43.7412 33.2997L45.81 29.5142L46.9733 29.1612L51.5699 28.2918L51.5715 28.291Z" fill="#8BE200"/>
<path d="M46.9753 29.1604L45.812 29.5135L43.7432 33.2989L45.6314 34.1174L46.9277 34.8637C47.1715 35.4121 48.5212 40.117 48.4276 40.7097L48.2708 41.6637C48.2158 42.0134 48.7009 42.4551 49.0433 42.3656L49.43 42.2039C49.2543 42.1103 48.9226 41.7868 48.9571 41.5668L49.1139 40.6129C49.2075 40.0193 48.0089 35.4088 47.614 34.7668C47.2191 34.1248 44.4295 33.202 44.4295 33.202L46.4983 29.4166L47.8898 29.0316L46.9745 29.1604H46.9753Z" fill="#029D24"/>
<path d="M51.3601 36.6427L54.3813 35.5992C54.3813 35.5992 54.6005 36.1411 54.8779 36.5401C55.1554 36.9391 55.3796 36.9432 55.3796 36.9432L55.9904 39.0185C55.9904 39.0185 56.1603 39.2328 54.763 39.8715C53.3657 40.5102 51.3101 40.7967 51.3101 40.7967L50.751 38.5596C50.751 38.5596 51.2411 38.2477 51.3667 37.8002C51.4923 37.3528 51.361 36.6435 51.361 36.6435L51.3601 36.6427Z" fill="#36CF00"/>
<path d="M47.9003 27.42C47.1836 27.4988 44.1337 27.869 44.2503 29.4305C44.3406 30.6406 45.7625 30.6152 45.9883 30.5987C47.8979 30.4567 48.4372 29.4133 49.8493 28.855C50.52 28.5898 51.3508 28.1679 51.7826 28.3288C51.7826 28.3288 51.5388 27.7787 50.5693 27.4339C49.8985 27.1959 48.2911 27.3765 47.9011 27.4192L47.9003 27.42Z" fill="#36CF00"/>
<path d="M60.0086 25.2576C60.0086 25.2576 63.2465 30.2917 63.2063 31.2177C63.1628 32.2201 62.3541 32.8071 61.176 32.8137C59.9988 32.8203 59.3051 29.5249 59.3051 29.5249L58.2354 25.6073L60.0086 25.2576Z" fill="#8BE200"/>
<path d="M59.8912 27.3158C59.2377 27.5629 58.3076 27.4685 58.2263 27.2993L57.9973 26.8207C57.916 26.6516 57.9882 26.4464 58.1582 26.3659C58.1582 26.3659 58.8387 26.3175 59.3707 26.0802C59.9027 25.843 60.2106 25.384 60.2106 25.384C60.3797 25.3028 60.5849 25.375 60.6654 25.5449L60.8944 26.0236C60.9757 26.1927 60.5447 27.0686 59.8912 27.3158Z" fill="#36CF00"/>
<path d="M57.0956 23.8086C57.2614 23.7667 57.7178 23.926 58.1382 24.3102C58.1447 24.3159 58.1521 24.3208 58.1587 24.3266C58.4542 24.5819 58.4912 23.6682 58.4633 23.3373C58.4452 23.1222 58.6431 22.9466 58.8623 22.9794L60.0453 23.2618C60.0453 23.2618 60.5272 22.7594 60.519 22.9277L60.3178 25.2576C60.2801 25.6098 60.0461 25.6171 59.8515 25.9119L58.3812 25.9028C58.3204 25.7739 58.0668 25.141 57.9715 24.971C57.8853 24.8183 57.7728 24.6788 57.639 24.563C57.4986 24.4423 57.3098 24.2913 57.1621 24.2158C57.1489 24.2108 57.1341 24.2026 57.1218 24.1993C57.0931 24.1903 57.0693 24.1755 57.0488 24.1583C56.9149 24.0622 56.9338 23.8504 57.0956 23.8102V23.8086Z" fill="#FEB9AB"/>
<path d="M58.7379 26.989L60.6129 24.8734L56.0016 20.1093L54.5107 22.454L58.7379 26.989Z" fill="white"/>
<path d="M56.0508 21.9113L55.9416 21.8498L55.8833 21.4573C55.8726 21.3851 55.8069 21.3334 55.7339 21.3391C55.6616 21.3449 55.6042 21.4064 55.605 21.4795L55.6083 21.876L55.5097 21.9532C55.5015 21.9228 55.472 21.9015 55.4391 21.9039C55.4022 21.9072 55.3743 21.9392 55.3768 21.977L55.3825 22.0525L55.0919 22.2808C55.0303 22.3292 55.0861 22.4253 55.1584 22.3965L55.6501 22.1987L55.6821 22.4343C55.6854 22.4507 55.692 22.4712 55.706 22.4917C55.7084 22.4959 55.7117 22.5 55.715 22.5041L55.5212 22.7298C55.4769 22.7815 55.5286 22.8595 55.5935 22.8374L55.8414 22.7545L56.0992 22.798C56.1665 22.8095 56.2059 22.7249 56.1542 22.6806L55.9284 22.4868C55.9309 22.4827 55.9334 22.4778 55.935 22.4737C55.9457 22.4507 55.949 22.4302 55.9498 22.4097L55.9457 22.1757L56.4621 22.2955C56.5384 22.3128 56.5786 22.2093 56.5105 22.1708L56.1879 21.9901L56.1821 21.9146C56.1788 21.8768 56.1468 21.8489 56.1099 21.8522C56.077 21.8547 56.0516 21.8801 56.0483 21.9122L56.0508 21.9113Z" fill="#91D6FD"/>
<path d="M60.5506 25.2354L60.6705 24.9316L56.0025 20.1093L55.7529 20.5017L60.5506 25.2354Z" fill="#91D6FD"/>
<path d="M57.3519 21.7168L55.5959 23.8595C55.4924 23.9596 55.49 24.1238 55.5901 24.2273L58.3338 27.0194C58.4339 27.1228 58.5981 27.1253 58.7016 27.0251L60.6579 25.1328C60.8016 24.9932 60.8057 24.7642 60.6661 24.6205L57.8658 21.725C57.7262 21.5813 57.4972 21.5772 57.3535 21.7168H57.3519Z" fill="#0071CE"/>
<path d="M57.3529 23.5155C56.9531 23.9022 56.9424 24.5426 57.3291 24.9424C57.7157 25.3422 58.3561 25.3528 58.7559 24.9662C59.1557 24.5795 59.1664 23.9391 58.7797 23.5393C58.393 23.1395 57.7527 23.1289 57.3529 23.5155ZM57.9579 25.1599C57.9916 25.0901 58.031 25.0204 58.0761 24.9514C58.2157 25.0245 58.3528 25.0639 58.4718 25.0655C58.3109 25.1468 58.132 25.178 57.9571 25.1599H57.9579ZM57.6936 23.9285C57.6049 24.0114 57.5121 24.0845 57.4177 24.1477C57.3168 23.9301 57.2979 23.7273 57.3832 23.6083L57.6936 23.9293V23.9285ZM57.7519 23.9884L57.9924 24.2363L57.6829 24.536C57.5901 24.435 57.5138 24.3275 57.4563 24.2216C57.5581 24.1551 57.6574 24.0762 57.7527 23.9876L57.7519 23.9884ZM58.0507 24.2979L58.2953 24.5508C58.2034 24.6427 58.1221 24.7396 58.0515 24.8389C57.9456 24.7765 57.8397 24.6953 57.7404 24.5967L58.0499 24.2971L58.0507 24.2979ZM58.3544 24.6115L58.6648 24.9325C58.5433 25.0138 58.3405 24.9883 58.1262 24.88C58.1927 24.788 58.2682 24.6977 58.3544 24.6115ZM58.4144 24.5524C58.503 24.4695 58.5958 24.3964 58.6902 24.3332C58.7912 24.5508 58.8101 24.7535 58.7247 24.8726L58.4144 24.5516V24.5524ZM58.3561 24.4925L58.1114 24.2396L58.4209 23.94C58.5154 24.0426 58.5933 24.1518 58.6525 24.2593C58.5507 24.3258 58.4513 24.4046 58.3561 24.4933V24.4925ZM58.0523 24.1789L57.8118 23.9309C57.9037 23.839 57.985 23.7421 58.0556 23.6428C58.1599 23.7044 58.2641 23.784 58.3618 23.88L58.0523 24.1797V24.1789ZM57.7543 23.8702L57.444 23.5492C57.5655 23.4679 57.7683 23.4934 57.9826 23.6017C57.9161 23.6937 57.8405 23.784 57.7543 23.8702ZM57.2437 23.7947C57.2412 23.9145 57.2765 24.0516 57.3447 24.1945C57.2741 24.2372 57.2026 24.2749 57.132 24.3061C57.1197 24.1304 57.1567 23.9531 57.2437 23.7947ZM57.3832 24.2684C57.444 24.3784 57.5245 24.4884 57.6222 24.5951L57.3586 24.8504C57.2412 24.7166 57.169 24.5573 57.1419 24.3915C57.2223 24.3578 57.3028 24.3168 57.3832 24.2684ZM57.6804 24.6558C57.7847 24.7593 57.8947 24.8447 58.0039 24.9103C57.953 24.9883 57.9095 25.068 57.8734 25.1468C57.7067 25.1139 57.5483 25.0351 57.4169 24.9103L57.6804 24.655V24.6558ZM58.8651 24.6862C58.8676 24.5664 58.8322 24.4293 58.7641 24.2864C58.8347 24.2437 58.9061 24.206 58.9767 24.1748C58.9891 24.3504 58.9521 24.5278 58.8651 24.6862ZM58.7255 24.2125C58.6631 24.1009 58.5819 23.9884 58.4817 23.8809L58.7452 23.6255C58.8651 23.7602 58.939 23.9219 58.9661 24.0894C58.8856 24.123 58.8052 24.1641 58.7247 24.2125H58.7255ZM58.4226 23.8209C58.32 23.7199 58.2116 23.6354 58.1041 23.5714C58.155 23.4934 58.1985 23.4137 58.2346 23.3349C58.3988 23.3678 58.5564 23.4449 58.6861 23.5664L58.4226 23.8217V23.8209ZM58.0318 23.5295C57.8922 23.4564 57.7551 23.417 57.6361 23.4154C57.797 23.3341 57.976 23.3029 58.1509 23.321C58.1172 23.3907 58.0778 23.4605 58.0326 23.5295H58.0318Z" fill="white"/>
<path d="M59.3243 25.2121L58.8994 25.6231L59.1055 25.8361L59.5303 25.4251L59.3243 25.2121Z" fill="white"/>
<path d="M60.5194 22.9277C60.5194 22.9277 60.4102 22.2676 59.856 21.9951C59.3019 21.7233 58.5565 21.766 58.3241 21.8571C58.0918 21.9483 58.0557 22.4515 58.0557 22.4515C58.0557 22.4515 58.3578 22.8538 59.1049 23.0557C59.8519 23.2577 60.5202 22.9277 60.5202 22.9277H60.5194Z" fill="#FEB9AB"/>
<path d="M58.4723 22.0969C58.6554 22.1346 58.7802 22.3169 58.7539 22.509C58.7055 22.8776 58.6225 23.458 58.5454 23.8151C58.5199 23.9301 58.492 24.0475 58.4272 24.1435C58.3623 24.2396 58.2523 24.3102 58.1406 24.2921C58.0224 24.2732 57.9321 24.1599 57.8985 24.0393C57.8648 23.9186 57.8755 23.7905 57.8886 23.6665C57.9247 23.3234 58.0011 22.8062 58.0717 22.3834C58.1045 22.1864 58.2843 22.0575 58.4731 22.0969H58.4723Z" fill="#FEB9AB"/>
<path d="M59.0942 22.3596C59.2773 22.3973 59.4021 22.5796 59.3758 22.7717C59.3265 23.1403 59.2445 23.7207 59.1673 24.0778C59.1427 24.1928 59.1139 24.3102 59.0491 24.4062C58.9842 24.5023 58.8742 24.5729 58.7617 24.5548C58.6435 24.5359 58.5532 24.4226 58.5195 24.302C58.4859 24.1813 58.4966 24.0532 58.5097 23.9292C58.5458 23.5861 58.6222 23.0689 58.6928 22.6461C58.7256 22.4491 58.9054 22.3202 59.0942 22.3596Z" fill="#FEB9AB"/>
<path d="M59.6375 22.6658C59.8025 22.697 59.9134 22.8538 59.8887 23.0213C59.8419 23.3415 59.7631 23.8455 59.6901 24.1559C59.6663 24.256 59.64 24.3578 59.5809 24.4415C59.5218 24.5253 59.4216 24.5869 59.3206 24.5721C59.2139 24.5565 59.1335 24.4596 59.1039 24.3553C59.0743 24.2511 59.085 24.1394 59.0981 24.0319C59.1334 23.7339 59.2065 23.2848 59.273 22.917C59.3042 22.7454 59.4676 22.633 59.6375 22.665V22.6658Z" fill="#FEB9AB"/>
<path d="M60.2697 22.6748C60.4355 22.7068 60.5472 22.8636 60.5226 23.0319C60.475 23.3538 60.3961 23.8595 60.3231 24.1714C60.2993 24.2716 60.273 24.375 60.2131 24.4588C60.1531 24.5425 60.053 24.6049 59.9512 24.5901C59.8436 24.5745 59.7632 24.4768 59.7328 24.3717C59.7032 24.2667 59.7139 24.155 59.7271 24.0466C59.7624 23.7478 59.8362 23.2955 59.9027 22.9269C59.9339 22.7545 60.0981 22.6412 60.2689 22.674L60.2697 22.6748Z" fill="#FEB9AB"/>
<path d="M58.7736 22.4737L58.5068 23.9793" stroke="#F2917D" stroke-width="0.164192" stroke-linecap="round" stroke-linejoin="round"/>
<path d="M59.3697 22.7422L59.1045 24.2971" stroke="#F2917D" stroke-width="0.164192" stroke-linecap="round" stroke-linejoin="round"/>
<path d="M59.7256 24.0475L59.9021 22.9277" stroke="#F2917D" stroke-width="0.164192" stroke-linecap="round" stroke-linejoin="round"/>
<path d="M47.6522 27.4996C47.8106 27.3551 48.0947 27.2254 48.5552 27.0752C49.015 26.9249 49.3204 26.8601 49.5347 26.8831L50.3474 28.4421C50.3474 28.4421 50.9155 29.6382 50.0707 29.8131C49.226 29.9879 47.9182 29.2376 47.9182 29.2376L47.6514 27.4996H47.6522Z" fill="#FEB9AB"/>
<path d="M48.259 26.1808C48.7786 26.0106 49.1521 25.7267 49.0931 25.5466C49.0341 25.3664 48.5651 25.3584 48.0454 25.5285C47.5258 25.6987 47.1523 25.9826 47.2113 26.1627C47.2703 26.3428 47.7393 26.3509 48.259 26.1808Z" fill="#FEB9AB"/>
<path d="M49.6775 27.1072L47.6924 27.7533C47.6924 27.7533 48.7194 28.5924 49.3811 28.3756C50.0436 28.1589 49.6775 27.1072 49.6775 27.1072Z" fill="#F2917D"/>
<path d="M50.5496 22.2996C49.9528 21.844 49.658 22.2373 49.585 22.4901L50.0562 24.2141C50.1432 24.2897 50.3567 24.3915 50.5151 24.1887C50.7121 23.9358 51.2967 22.8678 50.5496 22.2988V22.2996Z" fill="#F2917D"/>
<path d="M46.3709 27.4931C46.7313 27.6129 47.9225 27.9684 49.071 27.5924C50.0307 27.278 50.4248 26.1697 50.4248 26.1697C50.4248 26.1697 51.0643 24.6008 50.4659 22.7742C49.8674 20.9475 48.5497 19.0996 45.9768 19.9427C43.4048 20.785 43.436 23.0541 44.0336 24.8808C44.6321 26.7074 46.0097 27.3732 46.3709 27.4931Z" fill="#FEB9AB"/>
<path d="M48.1309 23.8612C47.773 23.55 47.7073 23.0903 47.7081 23.0903C47.7081 23.0903 47.6983 23.3645 47.8641 23.6814C48.0792 24.0927 48.566 24.3899 48.6202 24.426C48.8271 24.5623 48.6038 25.0442 48.6038 25.0442C48.6038 25.0442 48.8271 24.9506 48.8862 24.6099C48.9461 24.2692 48.6276 24.293 48.1309 23.8612Z" fill="#F2917D"/>
<path d="M47.5512 19.3803C46.2204 19.4362 45.1491 20.0084 44.7788 20.2883C44.2838 20.7095 43.3093 21.7636 43.3774 22.6059C43.4456 23.4482 44.0457 25.0827 44.4857 24.8126C44.9258 24.5425 45.2238 23.0467 45.9758 22.4893C46.7269 21.9319 47.08 21.5083 47.1629 21.3654C47.3796 21.6051 46.956 22.1388 46.7163 22.376C46.6465 22.4277 46.7442 22.4359 47.6916 22.0567C48.6398 21.6774 48.602 21.0091 48.4649 20.7226C48.4649 20.7226 49.4673 21.8925 49.5593 22.4819C49.6939 22.3662 49.9771 22.0164 50.0313 21.5493C50.0994 20.9656 49.212 19.3114 47.5495 19.3803H47.5512Z" fill="#732B06"/>
<path d="M43.1803 24.6C43.4545 23.8496 43.9873 23.9761 44.2188 24.1329L44.8797 25.8208C44.846 25.9373 44.7081 26.1565 44.4273 26.0958C44.0776 26.0202 42.8363 25.5383 43.1795 24.6H43.1803Z" fill="#FEB9AB"/>
<path d="M46.0492 23.344C46.3406 23.1453 46.5968 23.206 46.527 23.0353C46.4564 22.8645 46.3521 22.7258 45.8316 23.11C45.3111 23.4934 45.4006 23.8021 45.3547 23.9367C45.3087 24.0721 45.6592 23.6091 46.0492 23.344Z" fill="#0B0B0B"/>
<path d="M49.0916 22.463C48.7394 22.4819 48.5727 22.6855 48.5251 22.5074C48.4775 22.3292 48.4767 22.1552 49.1228 22.1445C49.7688 22.1338 49.8854 22.4327 50.0028 22.5131C50.121 22.5927 49.562 22.4376 49.0916 22.463Z" fill="#0B0B0B"/>
<path d="M50.0695 23.2216C50.0801 23.0468 50.0563 22.9967 49.9956 22.9138C49.934 22.8317 49.5276 22.7143 49.2074 22.8875C48.8881 23.0607 48.7108 23.4605 48.7108 23.4605C48.7108 23.4605 48.6804 23.8365 48.774 23.9186C48.8684 24.0007 49.2436 23.9342 49.5843 23.8226C49.9241 23.7109 50.0588 23.3949 50.0695 23.2208V23.2216Z" fill="white"/>
<path d="M49.2636 23.7938C49.4744 23.7938 49.6453 23.6229 49.6453 23.4121C49.6453 23.2012 49.4744 23.0303 49.2636 23.0303C49.0528 23.0303 48.8818 23.2012 48.8818 23.4121C48.8818 23.6229 49.0528 23.7938 49.2636 23.7938Z" fill="#0B0B0B"/>
<path d="M49.2483 23.0131C49.5372 22.8497 49.9584 22.8825 49.9584 22.8825C49.9584 22.8825 49.6415 22.6445 49.1768 22.899C48.713 23.1535 48.6826 23.582 48.6826 23.582C48.6826 23.582 48.9601 23.1748 49.2483 23.0123V23.0131Z" fill="#0B0B0B" stroke="#0B0B0B" stroke-width="0.0820961" stroke-linejoin="round"/>
<path d="M45.9495 24.5712C45.837 24.4366 45.8271 24.3824 45.8271 24.2798C45.828 24.1772 46.0866 23.8422 46.447 23.793C46.8066 23.7437 47.1867 23.9613 47.1867 23.9613C47.1867 23.9613 47.4338 24.2461 47.4075 24.3676C47.3804 24.49 47.0381 24.6583 46.6974 24.7691C46.3575 24.8807 46.0619 24.7051 45.9495 24.5712Z" fill="white"/>
<path d="M46.4648 24.7001C46.6756 24.7001 46.8465 24.5292 46.8465 24.3184C46.8465 24.1076 46.6756 23.9366 46.4648 23.9366C46.2539 23.9366 46.083 24.1076 46.083 24.3184C46.083 24.5292 46.2539 24.7001 46.4648 24.7001Z" fill="#0B0B0B"/>
<path d="M46.4863 23.917C46.1571 23.9564 45.8369 24.2322 45.8369 24.2322C45.8369 24.2322 45.9518 23.8529 46.4773 23.7832C47.0019 23.7142 47.2802 24.0418 47.2802 24.0418C47.2802 24.0418 46.8163 23.8776 46.4863 23.917Z" fill="#0B0B0B" stroke="#0B0B0B" stroke-width="0.0820961" stroke-linejoin="round"/>
<path d="M48.6978 25.728C49.2199 25.6328 49.8389 25.2568 49.8389 25.2568C49.8915 25.7559 49.5524 26.4381 48.8234 26.5079C48.0796 26.5793 47.6355 26.1721 47.4795 25.7239C47.4795 25.7239 48.0041 25.8553 48.6978 25.7288V25.728Z" fill="white"/>
<path d="M49.8275 25.5588C49.7298 26.0867 49.353 26.5744 48.8571 26.6212C48.4015 26.6647 47.9073 26.4085 47.6396 26.0391C47.7899 26.0448 49.0164 26.3215 49.8275 25.5588Z" fill="#CC7C71"/>
<path d="M42.3558 24.8258C42.3739 24.7617 43.6431 20.3146 50.5654 19.3459C50.5654 19.3459 49.4062 19.0454 48.6944 18.5446C48.6321 18.5003 48.5729 18.4551 48.5179 18.4083C48.513 18.4042 48.5089 18.4009 48.5048 18.3968C47.8374 17.8156 47.4384 17.0135 46.4655 17.0004C46.2775 16.9979 46.0559 17.0316 45.8137 17.0931C45.7316 17.1137 45.6479 17.1383 45.5617 17.1654C45.1265 17.3025 44.6446 17.5143 44.1816 17.763C44.125 17.7934 44.0683 17.8246 44.0125 17.8558C43.5577 18.1111 43.13 18.3976 42.7926 18.6768C42.7318 18.7269 42.6743 18.7769 42.6193 18.8262C42.4872 18.946 42.3747 19.0643 42.2868 19.1759C41.7737 19.8286 42.0135 21.1183 42.2868 21.8506C42.3312 21.9688 42.3624 22.1273 42.3845 22.3087C42.396 22.4023 42.4051 22.5008 42.4108 22.6051C42.4707 23.5319 42.3583 24.7864 42.355 24.8258H42.3558Z" fill="#FD5D1C"/>
<path d="M42.4109 22.605C43.5446 20.9385 45.2342 19.9123 46.482 19.3368C47.4105 18.9091 48.2307 18.6644 48.6929 18.5446C48.6305 18.5002 48.5714 18.4551 48.5164 18.4083C48.5114 18.4042 48.5073 18.4009 48.5032 18.3968C48.2405 18.4682 47.8982 18.5708 47.5049 18.712C47.445 18.7334 47.3834 18.7564 47.3219 18.7794C47.0345 18.8877 46.725 19.0142 46.4024 19.1627C46.0674 19.3171 45.7013 19.5034 45.322 19.7259C45.267 19.7579 45.2112 19.7908 45.1562 19.8253C44.6152 20.1536 44.0544 20.5543 43.5266 21.037C43.4781 21.0813 43.4305 21.1265 43.3821 21.1716C43.0266 21.5107 42.6884 21.8892 42.3838 22.3087C42.3953 22.4023 42.4043 22.5008 42.4101 22.605H42.4109Z" fill="#D33E09"/>
<path d="M45.5623 17.1654C46.0303 17.4469 46.8381 18.0109 47.3233 18.7785C47.329 18.7867 47.334 18.795 47.3389 18.8032C47.3611 18.8393 47.4038 18.8557 47.4432 18.8459C47.453 18.8434 47.462 18.8393 47.4711 18.8344C47.5129 18.8081 47.5277 18.7547 47.5072 18.7112C47.5064 18.7079 47.5047 18.7055 47.5023 18.7022C47.0417 17.9592 46.3111 17.4084 45.8136 17.0923C45.7315 17.1128 45.6477 17.1374 45.5615 17.1645L45.5623 17.1654Z" fill="#D33E09"/>
<path d="M44.0127 17.8558C44.2992 18.2753 44.7877 19.0338 45.1563 19.8244C45.1645 19.8409 45.1719 19.8573 45.1793 19.8737C45.199 19.9164 45.245 19.9377 45.2893 19.9271C45.295 19.9254 45.3008 19.9238 45.3065 19.9205C45.355 19.8983 45.3755 19.8417 45.3541 19.7932C45.3435 19.7703 45.3336 19.7481 45.323 19.7251C44.9543 18.9403 44.4716 18.1891 44.1818 17.763C44.1252 17.7934 44.0685 17.8246 44.0127 17.8558Z" fill="#D33E09"/>
<path d="M43.3825 21.1716C43.3932 21.1913 43.4046 21.2102 43.4161 21.2291C43.4383 21.266 43.481 21.2833 43.5212 21.2734C43.5303 21.271 43.5393 21.2677 43.5475 21.2628C43.5926 21.2357 43.6082 21.1766 43.5803 21.1314C43.5614 21.1002 43.5434 21.0682 43.5261 21.037C43.0705 20.2218 42.8718 19.2292 42.7914 18.6776C42.7306 18.7276 42.6732 18.7777 42.6182 18.827C42.7109 19.4181 42.9227 20.372 43.3817 21.1716H43.3825Z" fill="#D33E09"/>
<path d="M42.9515 23.6985C42.4688 24.2067 41.968 24.7453 41.7907 25.4242C41.6133 26.104 41.7858 26.8453 41.5624 27.5119C41.3129 28.2549 40.6019 28.8099 40.4903 29.5857C40.4427 29.9157 40.5124 30.2531 40.4845 30.5856C40.432 31.221 39.9961 31.8096 39.4033 32.0444" stroke="#732B06" stroke-width="0.246288" stroke-linecap="round" stroke-linejoin="round"/>
<path d="M40.1436 33.6158L43.2484 35.6025C43.2484 35.6025 46.9477 33.1758 47.0331 32.3294C47.0437 32.2267 47.0503 32.1208 47.0536 32.0133C47.0938 30.8722 46.1399 29.924 45.0028 30.0323C44.993 30.0331 44.9823 30.034 44.9724 30.0356C43.9569 30.1432 40.1436 33.6158 40.1436 33.6158Z" fill="#8BE200"/>
<path d="M43.4778 35.4498C44.4391 34.7791 45.3931 34.2372 45.8569 33.4532C46.3216 32.6692 46.0023 31.3754 45.1879 30.9895C44.3735 30.6037 43.5123 30.8163 42.959 31.226C42.0822 31.8737 38.4363 34.9638 37.933 35.4695C37.4298 35.9752 37.3731 37.0901 38.3386 37.8002C39.304 38.5103 42.5165 36.1205 43.4778 35.4506V35.4498Z" fill="#8BE200"/>
<path d="M43.0194 42.3032C43.0194 42.3032 45.4609 43.3778 45.5685 43.4082C45.676 43.4386 45.9765 43.4296 46.0586 43.2925C46.1407 43.1562 46.052 42.9567 46.052 42.9567C46.052 42.9567 46.5626 42.9994 46.6735 42.813C46.7843 42.6267 46.6456 42.5002 46.6456 42.5002C46.6456 42.5002 47.0117 42.4879 47.0963 42.2145C47.1808 41.9412 46.992 41.6842 46.992 41.6842C46.992 41.6842 47.3393 41.7392 47.3992 41.502C47.4591 41.2647 47.3343 40.9609 47.3343 40.9609L46.9206 40.7056C46.9206 40.7056 45.8812 40.2229 45.575 40.0998C45.2688 39.9766 44.8862 40.2426 44.5094 40.3181L43.0186 42.3032H43.0194Z" fill="#FEB9AB"/>
<path d="M38.2398 35.2692C37.4304 35.7051 37.2284 37.4538 38.1799 38.5153C39.0854 39.5251 42.5893 42.1948 42.5893 42.1948L43.737 39.9996C43.737 39.9996 42.4267 38.7952 41.8217 38.0219C41.2167 37.2486 41.3209 36.6501 40.5476 35.8931C39.7742 35.1362 39.0485 34.8333 38.239 35.2692H38.2398Z" fill="#8BE200"/>
<path d="M44.6726 40.4412C44.6726 40.4412 44.4633 41.0734 44.162 41.5528C43.8607 42.0323 43.2934 42.5601 43.2934 42.5601C43.1867 42.7243 42.965 42.7711 42.8008 42.6644L42.1588 42.2465C41.9946 42.1398 41.9339 41.9411 42.0406 41.7761C42.0406 41.7761 42.6054 41.4707 43.0192 40.7721C43.4321 40.0734 43.4001 39.6802 43.4001 39.6802C43.5068 39.516 43.7622 39.4232 43.9263 39.53L44.5683 39.9478C44.7325 40.0546 44.7793 40.2762 44.6726 40.4404V40.4412Z" fill="#36CF00"/>
<path d="M46.9971 41.685L45.9619 41.3115" stroke="#F2917D" stroke-width="0.164192" stroke-linecap="round" stroke-linejoin="round"/>
<path d="M50.3689 28.2952C50.3935 28.3379 50.7605 28.7549 50.7818 28.8033C50.9846 29.2696 50.7753 29.6021 50.4797 29.6727C49.9822 29.791 49.277 29.3747 48.3428 29.1219C50.0775 29.2631 50.2482 28.6006 50.3689 28.2952Z" fill="#FEF5FC"/>
<path d="M50.4787 29.6719C50.7743 29.6013 50.9828 29.2688 50.7808 28.8025C50.6774 28.5636 50.3359 28.378 50.3359 28.378C50.3359 28.378 50.2792 28.0316 50.8128 27.8961C51.3465 27.7607 51.7003 28.2023 51.7003 28.2023C51.7003 28.2023 51.8505 28.4462 51.8875 28.5997C52.1609 29.749 50.8342 30.1439 50.6199 30.1948C48.8072 30.6258 47.8106 29.8689 46.3361 29.7671C45.6473 29.7195 45.1014 29.5996 44.7451 29.864C45.0554 29.6292 47.7868 28.6604 47.7868 28.6604C47.7868 28.6604 49.7201 29.8516 50.4795 29.6719H50.4787Z" fill="#36CF00"/>
<path d="M48.9851 30.0651C49.1739 30.1439 49.3611 30.1275 49.4022 30.0282C49.444 29.9289 49.3242 29.7844 49.1354 29.7047C48.9465 29.6259 48.7594 29.6423 48.7183 29.7417C48.6764 29.841 48.7963 29.9855 48.9851 30.0651Z" fill="#029D24"/>
<path d="M49.1351 29.7048C49.1417 29.7072 49.1483 29.7105 49.1548 29.7138C49.177 29.7951 49.2008 29.8878 49.2271 29.9888C49.3363 30.4042 49.4717 30.9222 49.5957 31.2662C49.755 31.7071 49.9323 32.0043 50.1039 32.2924C50.2829 32.5929 50.452 32.8769 50.5956 33.2973C50.6597 33.4853 50.8124 34.055 50.8124 34.055L50.5406 34.1248C50.5406 34.1248 50.3904 33.5657 50.3296 33.3876C50.1958 32.9952 50.0341 32.7234 49.8625 32.4361C49.6844 32.1364 49.4997 31.8269 49.3314 31.3615C49.2025 31.0052 49.0654 30.4806 48.9554 30.0594C48.9151 29.9051 48.8782 29.7647 48.8486 29.6588C48.9274 29.6465 49.0309 29.6612 49.1351 29.7048Z" fill="#F0F1F2"/>
<path d="M50.8119 34.0542C50.9342 34.078 51.0376 34.1707 51.0688 34.2996C51.1107 34.4753 51.0015 34.6518 50.8258 34.6937C50.6501 34.7356 50.4736 34.6264 50.4318 34.4507C50.4022 34.3259 50.4482 34.2003 50.5401 34.1239C50.5779 34.0928 50.623 34.0689 50.6739 34.0566C50.7207 34.0451 50.7675 34.0451 50.8119 34.0533V34.0542Z" fill="#FEF5FC"/>
<path d="M51.5604 29.442C51.4413 29.6087 51.2731 29.6924 51.186 29.63C51.0982 29.5676 51.1236 29.3813 51.2435 29.2146C51.3625 29.048 51.5308 28.9642 51.6179 29.0266C51.7057 29.089 51.6802 29.2754 51.5604 29.442Z" fill="#029D24"/>
<path d="M51.2425 29.2154C51.2901 29.1489 51.3451 29.0956 51.4001 29.0594L51.4206 29.0504L51.4354 29.0849C51.5635 29.3747 51.9034 30.1456 52.3048 30.7129C52.428 30.8877 52.588 31.0536 52.758 31.2292C53.0913 31.5749 53.4698 31.9673 53.7735 32.6068C53.8589 32.7858 53.996 33.3022 53.996 33.3022L53.7226 33.3662C53.7226 33.3662 53.5945 32.8851 53.5198 32.7283C53.2358 32.1298 52.8746 31.7555 52.5552 31.4246C52.3779 31.2407 52.2112 31.0675 52.0749 30.8754C51.6866 30.3254 51.3574 29.6029 51.208 29.2663C51.2179 29.2491 51.2294 29.2327 51.2408 29.2162L51.2425 29.2154Z" fill="#F0F1F2"/>
<path d="M53.9978 33.3014C54.1169 33.3277 54.217 33.4196 54.2466 33.546C54.2885 33.7217 54.1793 33.8982 54.0036 33.9401C53.8279 33.982 53.6514 33.8728 53.6095 33.6971C53.5791 33.5698 53.6284 33.4418 53.7245 33.3654C53.7606 33.3367 53.8041 33.3145 53.8525 33.303C53.901 33.2915 53.951 33.2915 53.9978 33.3014Z" fill="#FEF5FC"/>
<path d="M48.1391 42.9936C48.8237 41.4937 49.3672 39.6605 49.281 37.714C49.0651 32.8392 44.4365 30.2392 44.4365 30.2392C44.5104 30.0446 44.7723 29.8763 45.333 29.7975C45.8937 29.7187 46.3338 29.768 46.3338 29.768C46.3338 29.768 50.8983 32.2202 50.4369 38.9791C50.2974 41.0291 49.8352 42.1456 49.2441 43.4944C49.2441 43.4944 48.6702 43.8376 48.3583 43.5913C48.0463 43.345 48.1391 42.9928 48.1391 42.9928V42.9936Z" fill="#FFA800"/>
</svg>
