<svg width="24" height="24" viewBox="0 0 24 24" fill="none" xmlns="http://www.w3.org/2000/svg">
<path d="M2 22H22M19 19L21 22M18 15H16M12 15H6M2 3H15.038C16.2298 3 17.3087 3.70558 17.7864 4.79754L20.9357 11.9959C22.0425 14.5258 20.8889 17.474 18.359 18.5808C17.7271 18.8573 17.0447 19 16.3549 19H2M21 12H16C15.4477 12 15 11.5523 15 11V7C15 6.44772 15.4477 6 16 6H18" stroke="#687176" stroke-width="1.5" stroke-linecap="round" stroke-linejoin="round"></path>
<path d="M11 6H4C3.44772 6 3 6.44772 3 7V11C3 11.5523 3.44772 12 4 12H11C11.5523 12 12 11.5523 12 11V7C12 6.44772 11.5523 6 11 6Z" stroke="#687176" stroke-width="1.5" stroke-linecap="round" stroke-linejoin="round"></path>
</svg>