<svg xmlns="http://www.w3.org/2000/svg" width="88" height="62" fill="none" viewBox="0 0 88 62"><g clip-path="url(#clip0)"><path fill="#93D1EF" d="M20.74 19.959H2.577a1.88 1.88 0 0 0-1.876 1.885v37.152a1.88 1.88 0 0 0 1.876 1.885H20.74a1.88 1.88 0 0 0 1.876-1.885V21.844a1.88 1.88 0 0 0-1.876-1.885Z"/><path fill="#DAF1FA" d="M22.616 26.394H.701V56.13h21.915V26.394Z"/><path fill="#133456" d="M22.629 56.847H.713a.697.697 0 0 1-.659-.432.707.707 0 0 1-.054-.272v-29.75a.706.706 0 0 1 .7-.703H22.63a.699.699 0 0 1 .7.704v29.75a.705.705 0 0 1-.7.703ZM1.363 55.439h20.515V27.098H1.413l-.05 28.341Z"/><path fill="#133456" d="M21.565 61.598H1.763a1.76 1.76 0 0 1-1.234-.52 1.776 1.776 0 0 1-.517-1.24V21.027c.003-.466.189-.911.517-1.24a1.76 1.76 0 0 1 1.234-.52h19.802c.463.004.907.19 1.235.52.327.329.513.774.516 1.24v38.811a1.777 1.777 0 0 1-.516 1.24 1.76 1.76 0 0 1-1.235.52ZM1.763 20.675a.35.35 0 0 0-.35.352v38.811a.354.354 0 0 0 .35.352h19.802a.35.35 0 0 0 .35-.352V21.027a.353.353 0 0 0-.35-.352H1.763Z"/><path fill="#93D1EF" d="M6.392 39.063h-3.04v3.054h3.04v-3.054Z"/><path fill="#133456" d="M19.226 40.948H9.37a.35.35 0 0 1-.35-.352.353.353 0 0 1 .35-.352h9.857a.35.35 0 0 1 .35.352.353.353 0 0 1-.35.352Z"/><path fill="#2A9FD9" d="M6.392 32.49h-3.04v3.053h3.04V32.49Z"/><path fill="#133456" d="M19.226 34.375H9.37a.35.35 0 0 1-.35-.352.353.353 0 0 1 .35-.352h9.857a.35.35 0 0 1 .35.352.353.353 0 0 1-.35.352Z"/><path fill="#93D1EF" d="M6.392 45.535h-3.04v3.055h3.04v-3.055Z"/><path fill="#133456" d="M19.226 47.42H9.37a.35.35 0 0 1-.35-.351.353.353 0 0 1 .35-.352h9.857a.35.35 0 0 1 .35.352.353.353 0 0 1-.35.352Z"/><path fill="#93D1EF" d="M87.3 3.683v54.232c0 .79-.313 1.548-.869 2.107a2.958 2.958 0 0 1-2.096.872H25.093A2.941 2.941 0 0 1 23 60.021a2.968 2.968 0 0 1-.86-2.106V3.683A2.976 2.976 0 0 1 23 1.577a2.952 2.952 0 0 1 2.092-.873h59.254a2.94 2.94 0 0 1 2.092.873 2.967 2.967 0 0 1 .86 2.106Z"/><path fill="#DAF1FA" d="M35.925.716v60.178H25.093A2.941 2.941 0 0 1 23 60.021a2.968 2.968 0 0 1-.86-2.106V3.683A2.976 2.976 0 0 1 23 1.577a2.952 2.952 0 0 1 2.092-.873l10.832.012Z"/><path fill="#2A9FD9" d="M87.3 3.683v3.946H22.14V3.683A2.976 2.976 0 0 1 23 1.577a2.952 2.952 0 0 1 2.093-.873h59.254a2.94 2.94 0 0 1 2.092.873 2.967 2.967 0 0 1 .86 2.106Z"/><path fill="#133456" d="M87.3 8.383H22.14a.698.698 0 0 1-.616-.48.706.706 0 0 1-.034-.274V3.683c0-.975.385-1.91 1.07-2.6A3.657 3.657 0 0 1 25.142 0h59.204a3.65 3.65 0 0 1 2.592 1.079 3.685 3.685 0 0 1 1.073 2.604v3.946a.708.708 0 0 1-.428.7.698.698 0 0 1-.285.054ZM22.84 6.925h63.795V3.683a2.28 2.28 0 0 0-.663-1.597 2.259 2.259 0 0 0-1.588-.666H25.093c-.597 0-1.17.239-1.592.663-.423.424-.66 1-.66 1.6v3.242Z"/><path fill="#133456" d="M84.347 61.598H25.093a3.657 3.657 0 0 1-2.552-1.1 3.692 3.692 0 0 1-1.05-2.583V3.683c0-.975.384-1.91 1.068-2.6A3.656 3.656 0 0 1 25.143 0h59.204a3.65 3.65 0 0 1 2.592 1.079 3.685 3.685 0 0 1 1.074 2.604v54.232a3.697 3.697 0 0 1-1.074 2.604 3.664 3.664 0 0 1-2.592 1.079ZM25.093 1.42c-.597 0-1.17.239-1.592.663-.423.424-.66 1-.66 1.6v54.232c0 .6.237 1.176.66 1.6.422.424.995.663 1.592.663h59.254a2.259 2.259 0 0 0 1.589-.667 2.28 2.28 0 0 0 .663-1.596V3.683a2.28 2.28 0 0 0-.663-1.597 2.259 2.259 0 0 0-1.589-.666H25.093Z"/><path fill="#DAF1FA" d="M48.785 31.534h-7.068v7.101h7.068v-7.1Z"/><path fill="#133456" d="M48.797 39H41.73a.35.35 0 0 1-.35-.352v-7.114a.353.353 0 0 1 .35-.352h7.067a.35.35 0 0 1 .35.352v7.101a.352.352 0 0 1-.35.365Zm-6.717-.704h6.367v-6.41H42.08v6.41ZM80.357 35.443H53.688a.35.35 0 0 1-.35-.352.353.353 0 0 1 .35-.352h26.67a.35.35 0 0 1 .35.352.353.353 0 0 1-.35.352Z"/><path fill="#2A9FD9" d="M48.785 16.264h-7.068v7.1h7.068v-7.1Z"/><path fill="#133456" d="M48.797 23.73H41.73a.35.35 0 0 1-.35-.353v-7.1a.353.353 0 0 1 .35-.353h7.067a.35.35 0 0 1 .35.352v7.101a.353.353 0 0 1-.35.352Zm-6.717-.705h6.367v-6.397H42.08v6.397ZM80.357 20.185H53.688a.348.348 0 0 1-.323-.217.351.351 0 0 1 .323-.487h26.67a.35.35 0 0 1 .323.487.351.351 0 0 1-.324.217Z"/><path fill="#DAF1FA" d="M48.785 46.566h-7.068v7.101h7.068v-7.101Z"/><path fill="#133456" d="M48.797 54.032H41.73a.35.35 0 0 1-.35-.352v-7.114a.353.353 0 0 1 .35-.352h7.067a.35.35 0 0 1 .35.352v7.063a.355.355 0 0 1-.203.372.348.348 0 0 1-.147.03Zm-6.717-.704h6.367v-6.41H42.08v6.41ZM80.357 50.475H53.688a.35.35 0 0 1-.35-.352.353.353 0 0 1 .35-.352h26.67a.35.35 0 0 1 .35.352.353.353 0 0 1-.35.352Z"/><path fill="#DAF1FA" d="M28.032 5.166c.553 0 1.001-.45 1.001-1.006 0-.555-.448-1.005-1-1.005-.553 0-1.001.45-1.001 1.005 0 .555.448 1.006 1 1.006ZM31.71 5.166c.553 0 1-.45 1-1.006 0-.555-.447-1.005-1-1.005-.553 0-1 .45-1 1.005 0 .555.447 1.006 1 1.006ZM35.375 5.166c.553 0 1-.45 1-1.006 0-.555-.447-1.005-1-1.005-.553 0-1 .45-1 1.005 0 .555.447 1.006 1 1.006Z"/><path fill="#FFCE09" d="m41.18 46.742.024-23.805-20.677 11.878 6.817 3.87-11.258 16.98 9.295 5.418 8.993-18.225 6.805 3.884Z"/><path fill="#FBAA1B" d="M32.486 41.614a.636.636 0 0 0-.888.277L22.84 59.486l2.14 1.257a.637.637 0 0 0 .9-.276l8.756-17.596-2.151-1.257ZM40.329 23.465l-2.34 1.345v20.11l2.265 1.332a.585.585 0 0 0 .798-.222.593.593 0 0 0 .078-.294V23.968a.593.593 0 0 0-.532-.541.586.586 0 0 0-.27.038Z"/><path fill="#143456" d="M25.243 62.013a1.31 1.31 0 0 1-.663-.176l-8.606-5.028a1.315 1.315 0 0 1-.629-.846 1.326 1.326 0 0 1 .191-1.039l10.77-16.15-5.541-3.155a1.316 1.316 0 0 1-.67-1.15 1.325 1.325 0 0 1 .67-1.15l19.814-11.312a1.308 1.308 0 0 1 1.806.49c.114.203.173.433.17.667v22.824a1.324 1.324 0 0 1-.649 1.148 1.31 1.31 0 0 1-1.315.008l-5.578-3.18-8.644 17.307a1.317 1.317 0 0 1-1.176.742h.05Zm-8.531-6.373 8.444 4.915 8.568-17.37a1.318 1.318 0 0 1 1.32-.73c.179.02.35.076.506.165l5.53 3.142V23.239L21.49 34.475l5.492 3.13a1.315 1.315 0 0 1 .636.843 1.326 1.326 0 0 1-.186 1.042l-10.72 16.15Z"/></g><defs><clipPath id="clip0"><path fill="#fff" d="M0 0h88v62H0z"/></clipPath></defs></svg>