<svg xmlns="http://www.w3.org/2000/svg" width="96" height="96" fill="none" viewBox="0 0 96 96"><path fill="#D2ECFA" fill-rule="evenodd" d="M17 31a2 2 0 0 1-2 2h-4a4 4 0 0 0-4 4v43c0 6.075 4.925 11 11 11h56V37a4 4 0 0 0-4-4H41a2 2 0 0 1-2-2v-3a5 5 0 0 0-5-5H22a5 5 0 0 0-5 5v3Z" clip-rule="evenodd"/><path fill="#77C6EE" fill-rule="evenodd" d="M31 41a4 4 0 0 0-4 4v32.902a14 14 0 0 1-8.314 12.793L18 91h57c6.075 0 11-4.925 11-11V45a4 4 0 0 0-4-4H31Z" clip-rule="evenodd"/><path stroke="#0C7CD2" stroke-linecap="round" stroke-width="2" d="M43 59v1a3 3 0 0 0 3 3h1a3 3 0 0 0 3-3v-1M66 59v1a3 3 0 0 0 3 3h1a3 3 0 0 0 3-3v-1"/><path stroke="#1BA0E2" stroke-linecap="round" stroke-width="4" d="M44 68h-4M76 68h-4"/><rect width="9" height="11" x="54" y="69" fill="#0C7CD2" rx="4.5"/><path fill="#D2ECFA" fill-rule="evenodd" d="M62.462 77.635A4.5 4.5 0 0 1 58.5 80a4.5 4.5 0 0 1-3.962-2.365A3.497 3.497 0 0 1 57.5 76h2c1.247 0 2.342.653 2.962 1.635Z" clip-rule="evenodd"/><rect width="5" height="6" x="58" y="76" fill="#D2ECFA" rx="2.5"/><rect width="2" height="9" x="61" y="78" fill="#D2ECFA" rx="1"/><rect width="34" height="25" x="55" y="6" fill="#FEE2CD" rx="12.5"/><rect width="8" height="8" x="49" y="26" fill="#FEE2CD" rx="4"/><rect width="4" height="4" x="57" y="35" fill="#FEE2CD" rx="2"/><path stroke="#FCA867" stroke-linecap="round" stroke-linejoin="round" stroke-width="2" d="M62 13h8l-8 11h8M72 16h4.167l-3.334 5H77M80 19h3.333l-2.666 4H84"/></svg>